<svg xmlns="http://www.w3.org/2000/svg" version="1.1" xmlns:xlink="http://www.w3.org/1999/xlink" xmlns:svgjs="http://svgjs.dev/svgjs" width="1500" height="1500" viewBox="0 0 1500 1500"><rect width="1500" height="1500" fill="#471aa0"></rect><g transform="matrix(0.6666666666666666,0,0,0.6666666666666666,249.39393939393938,435.99032258064517)"><svg viewBox="0 0 396 248" data-background-color="#471aa0" preserveAspectRatio="xMidYMid meet" height="939" width="1500" xmlns="http://www.w3.org/2000/svg" xmlns:xlink="http://www.w3.org/1999/xlink"><g id="tight-bounds" transform="matrix(1,0,0,1,0.2400000000000091,0.4000000000000057)"><svg viewBox="0 0 395.52 247.2" height="247.2" width="395.52"><g><svg></svg></g><g><svg viewBox="0 0 395.52 247.2" height="247.2" width="395.52"><g transform="matrix(1,0,0,1,75.54432,82.60561217214848)"><svg viewBox="0 0 244.43135999999998 81.98877565570301" height="81.98877565570301" width="244.43135999999998"><g><svg viewBox="0 0 244.43135999999998 81.98877565570301" height="81.98877565570301" width="244.43135999999998"><g><svg viewBox="0 0 244.43135999999998 81.98877565570301" height="81.98877565570301" width="244.43135999999998"><g id="textblocktransform"><svg viewBox="0 0 244.43135999999998 81.98877565570301" height="81.98877565570301" width="244.43135999999998" id="textblock"><g><rect width="244.43135999999998" height="62.74904333806313" fill="none" stroke-width="5.538745477134433" stroke="#ffffff" data-fill-palette-color="none" data-stroke-palette-color="tertiary"></rect><rect width="244.43135999999998" height="20.23973231763988" y="62.74904333806313" fill="#ffffff" data-fill-palette-color="tertiary"></rect></g><g><svg viewBox="0 0 244.43135999999998 61.74904333806313" height="61.74904333806313" width="244.43135999999998"><g transform="matrix(1,0,0,1,14.499333709776002,14.499333709775998)"><svg width="215.432692580448" viewBox="4.4 -34.1 299.27000000000004 45.5" height="32.75037591851113" data-palette-color="#ffffff"><path d="M4.4 0L4.4-34.1 13.5-34.1Q18.9-34.1 21.33-32.1 23.75-30.1 23.75-26L23.75-26Q23.75-24.1 23.23-22.7 22.7-21.3 22.05-20.35L22.05-20.35Q21.3-19.25 20.4-18.45L20.4-18.45Q21.6-18 22.65-17.3 23.7-16.6 24.5-15.6 25.3-14.6 25.78-13.23 26.25-11.85 26.25-10L26.25-10Q26.25-7.95 25.7-6.13 25.15-4.3 23.85-2.95 22.55-1.6 20.4-0.8 18.25 0 15.05 0L15.05 0 4.4 0ZM8.6-30.35L8.6-19.3 16.95-19.3Q17.65-19.85 18.2-20.75L18.2-20.75Q18.7-21.5 19.1-22.63 19.5-23.75 19.5-25.35L19.5-25.35Q19.5-28.3 17.98-29.33 16.45-30.35 13.7-30.35L13.7-30.35 8.6-30.35ZM8.6-15.8L8.6-3.75 15.4-3.75Q18.7-3.75 20.35-5.45 22-7.15 22-10L22-10Q22-11.25 21.68-12.3 21.35-13.35 20.55-14.13 19.75-14.9 18.4-15.35 17.05-15.8 15.05-15.8L15.05-15.8 8.6-15.8ZM32.15 0L32.15-21.1Q32.15-22.25 31.9-24.7L31.9-24.7 35.6-25.2 36-21.55 36.05-21.55Q36.95-22.7 37.8-23.55 38.65-24.4 39.57-25.03 40.5-25.65 41.35-25.65L41.35-25.65Q42.5-25.7 44.55-25.4L44.55-25.4 43.65-21.55Q42-21.85 41.35-21.8L41.35-21.8Q40.5-21.8 39.55-21 38.6-20.2 37.9-19.3L37.9-19.3Q37-18.2 36.15-16.8L36.15-16.8 36.15 0 32.15 0ZM51.05-12.45L51.05-12.45Q51.05-7.6 53.22-5.23 55.39-2.85 59.09-2.85L59.09-2.85Q62.75-2.85 64.8-5.2 66.84-7.55 66.84-12.25L66.84-12.25Q66.84-17.25 64.67-19.7 62.5-22.15 58.74-22.15L58.74-22.15Q54.99-22.15 53.02-19.73 51.05-17.3 51.05-12.45ZM46.8-12.5L46.8-12.5Q46.8-16.3 47.99-18.82 49.2-21.35 51.05-22.88 52.89-24.4 55.02-25.03 57.14-25.65 59.05-25.65L59.05-25.65Q60.84-25.65 62.97-25.08 65.09-24.5 66.89-23.03 68.69-21.55 69.89-19.07 71.09-16.6 71.09-12.8L71.09-12.8Q71.09-8.85 69.87-6.25 68.64-3.65 66.8-2.13 64.94-0.6 62.8 0.03 60.64 0.65 58.8 0.65L58.8 0.65Q56.89 0.65 54.8 0.05 52.7-0.55 50.92-2.02 49.14-3.5 47.97-6.05 46.8-8.6 46.8-12.5ZM93.29-24.85L92.49-21.5Q91.64-21.7 90.14-21.93 88.64-22.15 87.09-22.15L87.09-22.15Q84.84-22.15 83.42-21.25 81.99-20.35 81.19-18.93 80.39-17.5 80.09-15.78 79.79-14.05 79.79-12.4L79.79-12.4Q79.79-9.85 80.44-8.03 81.09-6.2 82.17-5.05 83.24-3.9 84.64-3.38 86.04-2.85 87.59-2.85L87.59-2.85Q88.64-2.85 89.62-2.98 90.59-3.1 91.42-3.28 92.24-3.45 92.99-3.7L92.99-3.7 93.79-0.35Q92.74-0.05 91.84 0.15 90.94 0.35 89.72 0.5 88.49 0.65 87.09 0.65L87.09 0.65Q84.34 0.65 82.19-0.05 80.04-0.75 78.57-2.3 77.09-3.85 76.32-6.35 75.54-8.85 75.54-12.45L75.54-12.45Q75.54-15.95 76.52-18.48 77.49-21 79.09-22.58 80.69-24.15 82.77-24.9 84.84-25.65 87.09-25.65L87.09-25.65Q88.29-25.65 89.42-25.53 90.54-25.4 91.39-25.25L91.39-25.25Q92.39-25.05 93.29-24.85L93.29-24.85ZM112.54-5.85L112.54-11.55Q111.54-11.5 110.64-11.45 109.74-11.4 108.87-11.33 107.99-11.25 107.29-11.15L107.29-11.15Q103.69-10.7 102.19-9.58 100.69-8.45 100.69-6.35L100.69-6.35Q100.69-4.6 101.77-3.73 102.84-2.85 104.59-2.85L104.59-2.85Q106.99-2.85 108.87-3.68 110.74-4.5 112.54-5.85L112.54-5.85ZM112.99 0.4L112.49-2.35Q110.14-1 108.12-0.18 106.09 0.65 103.74 0.65L103.74 0.65Q100.39 0.65 98.42-0.98 96.44-2.6 96.44-6.35L96.44-6.35Q96.44-8.3 97.44-9.75 98.44-11.2 100.07-12.18 101.69-13.15 103.74-13.7 105.79-14.25 107.94-14.4L107.94-14.4Q108.84-14.5 110.29-14.58 111.74-14.65 112.54-14.7L112.54-14.7Q112.54-16.45 112.44-17.82 112.34-19.2 111.84-20.18 111.34-21.15 110.37-21.65 109.39-22.15 107.59-22.15L107.59-22.15Q106.14-22.15 104.79-21.98 103.44-21.8 102.39-21.6L102.39-21.6Q101.14-21.35 100.09-21.05L100.09-21.05 99.29-24.5Q100.54-24.8 101.99-25.05L101.99-25.05Q103.24-25.3 104.89-25.48 106.54-25.65 108.44-25.65L108.44-25.65Q110.99-25.65 112.57-24.9 114.14-24.15 115.02-22.88 115.89-21.6 116.22-19.98 116.54-18.35 116.54-16.55L116.54-16.55 116.54-4.55Q116.54-3.85 116.57-3.08 116.59-2.3 116.67-1.55 116.74-0.8 116.84 0L116.84 0 112.99 0.4ZM123.64 0L123.64-20.6Q123.64-22.3 123.34-24.7L123.34-24.7 127.09-25.2 127.64-22.05Q128.99-23.05 130.29-23.8 131.59-24.55 133.09-25.1 134.59-25.65 136.14-25.65L136.14-25.65Q138.64-25.65 140.09-24.78 141.54-23.9 142.24-21.8L142.24-21.8Q144.29-23.25 146.51-24.45 148.74-25.65 151.14-25.65L151.14-25.65Q152.99-25.65 154.29-25.18 155.59-24.7 156.39-23.6 157.19-22.5 157.54-20.7 157.89-18.9 157.89-16.2L157.89-16.2 157.89 0 153.89 0 153.89-15.75Q153.89-17.25 153.84-18.43 153.79-19.6 153.49-20.43 153.19-21.25 152.51-21.7 151.84-22.15 150.59-22.15L150.59-22.15Q149.44-22.15 148.41-21.83 147.39-21.5 146.29-20.9 145.19-20.3 142.89-18.45L142.89-18.45 142.89 0 138.89 0 138.89-15.75Q138.89-17.25 138.84-18.43 138.79-19.6 138.49-20.43 138.19-21.25 137.51-21.7 136.84-22.15 135.59-22.15L135.59-22.15Q134.29-22.15 132.89-21.6 131.49-21.05 130.24-20.3 128.99-19.55 127.64-18.55L127.64-18.55 127.64 0 123.64 0ZM164.99 11.4L164.99-19.35Q164.99-21.15 164.74-24.7L164.74-24.7 168.44-25.2 168.89-22.5Q169.89-23.35 170.96-24.03 172.03-24.7 173.31-25.18 174.59-25.65 176.03-25.65L176.03-25.65Q178.09-25.65 179.91-24.95 181.74-24.25 183.11-22.7 184.49-21.15 185.29-18.68 186.09-16.2 186.09-12.6L186.09-12.6Q186.09-8.95 185.01-6.43 183.94-3.9 182.21-2.33 180.49-0.75 178.31-0.05 176.14 0.65 173.89 0.65L173.89 0.65Q171.49 0.6 168.99 0.05L168.99 0.05 168.99 10.9 164.99 11.4ZM173.89-2.85L173.89-2.85Q175.99-2.85 177.49-3.6 178.99-4.35 179.96-5.68 180.94-7 181.39-8.72 181.84-10.45 181.84-12.4L181.84-12.4Q181.84-14.15 181.51-15.9 181.19-17.65 180.46-19.03 179.74-20.4 178.53-21.28 177.34-22.15 175.59-22.15L175.59-22.15Q174.28-22.15 173.14-21.68 171.99-21.2 170.96-20.53 169.94-19.85 168.99-19L168.99-19 168.99-3.65Q169.53-3.45 170.21-3.28 170.89-3.1 171.81-2.98 172.74-2.85 173.89-2.85ZM192.33 0L192.33-34.1 196.53-34.1 196.53-4 212.03-4 212.03 0 192.33 0ZM234.03-3.95L234.78-0.6Q233.63-0.25 232.4 0 231.18 0.25 229.7 0.45 228.23 0.65 226.63 0.65L226.63 0.65Q224.13 0.65 221.98-0.05 219.83-0.75 218.23-2.3 216.63-3.85 215.7-6.33 214.78-8.8 214.78-12.4L214.78-12.4Q214.78-15.65 215.68-18.13 216.58-20.6 218.15-22.28 219.73-23.95 221.85-24.8 223.98-25.65 226.48-25.65L226.48-25.65Q228.93-25.65 230.73-24.7 232.53-23.75 233.7-22.13 234.88-20.5 235.45-18.32 236.03-16.15 236.03-13.75L236.03-13.75 235.28-11.55 219.13-11.55Q219.13-10 219.53-8.45 219.93-6.9 220.9-5.65 221.88-4.4 223.45-3.63 225.03-2.85 227.38-2.85L227.38-2.85Q228.88-2.85 230.13-3.03 231.38-3.2 232.3-3.43 233.23-3.65 234.03-3.95L234.03-3.95ZM219.28-14.75L231.88-14.75Q231.88-15.1 231.73-16.3 231.58-17.5 231.03-18.8 230.48-20.1 229.33-21.13 228.18-22.15 226.28-22.15L226.28-22.15Q224.18-22.15 222.83-21.28 221.48-20.4 220.68-19.2 219.88-18 219.58-16.75 219.28-15.5 219.28-14.75L219.28-14.75ZM255.48-5.85L255.48-11.55Q254.48-11.5 253.58-11.45 252.68-11.4 251.8-11.33 250.93-11.25 250.23-11.15L250.23-11.15Q246.63-10.7 245.13-9.58 243.63-8.45 243.63-6.35L243.63-6.35Q243.63-4.6 244.7-3.73 245.78-2.85 247.53-2.85L247.53-2.85Q249.93-2.85 251.8-3.68 253.68-4.5 255.48-5.85L255.48-5.85ZM255.93 0.4L255.43-2.35Q253.08-1 251.05-0.18 249.03 0.65 246.68 0.65L246.68 0.65Q243.33 0.65 241.35-0.98 239.38-2.6 239.38-6.35L239.38-6.35Q239.38-8.3 240.38-9.75 241.38-11.2 243-12.18 244.63-13.15 246.68-13.7 248.73-14.25 250.88-14.4L250.88-14.4Q251.78-14.5 253.23-14.58 254.68-14.65 255.48-14.7L255.48-14.7Q255.48-16.45 255.38-17.82 255.28-19.2 254.78-20.18 254.28-21.15 253.3-21.65 252.33-22.15 250.53-22.15L250.53-22.15Q249.08-22.15 247.73-21.98 246.38-21.8 245.33-21.6L245.33-21.6Q244.08-21.35 243.03-21.05L243.03-21.05 242.23-24.5Q243.48-24.8 244.93-25.05L244.93-25.05Q246.18-25.3 247.83-25.48 249.48-25.65 251.38-25.65L251.38-25.65Q253.93-25.65 255.5-24.9 257.08-24.15 257.95-22.88 258.83-21.6 259.15-19.98 259.48-18.35 259.48-16.55L259.48-16.55 259.48-4.55Q259.48-3.85 259.5-3.08 259.53-2.3 259.6-1.55 259.68-0.8 259.78 0L259.78 0 255.93 0.4ZM266.57 0L266.57-21.1Q266.57-22.25 266.32-24.7L266.32-24.7 270.03-25.2 270.43-21.55 270.48-21.55Q271.38-22.7 272.23-23.55 273.07-24.4 274-25.03 274.93-25.65 275.78-25.65L275.78-25.65Q276.93-25.7 278.98-25.4L278.98-25.4 278.07-21.55Q276.43-21.85 275.78-21.8L275.78-21.8Q274.93-21.8 273.98-21 273.03-20.2 272.32-19.3L272.32-19.3Q271.43-18.2 270.57-16.8L270.57-16.8 270.57 0 266.57 0ZM283.42 0L283.42-20.15Q283.47-21.2 283.17-24.7L283.17-24.7 286.87-25.2 287.42-22Q288.92-23 290.4-23.75 291.87-24.5 293.42-25.08 294.97-25.65 296.42-25.65L296.42-25.65Q298.47-25.65 299.85-25.18 301.22-24.7 302.07-23.6 302.92-22.5 303.3-20.7 303.67-18.9 303.67-16.2L303.67-16.2 303.67 0 299.67 0 299.67-15.75Q299.67-17.25 299.62-18.43 299.57-19.6 299.2-20.43 298.82-21.25 298.05-21.7 297.27-22.15 295.87-22.15L295.87-22.15Q294.57-22.15 293.12-21.58 291.67-21 290.27-20.25 288.87-19.5 287.42-18.5L287.42-18.5 287.42 0 283.42 0Z" opacity="1" transform="matrix(1,0,0,1,0,0)" fill="#ffffff" class="wordmark-text-0" data-fill-palette-color="primary" id="text-0"></path></svg></g></svg></g><g transform="matrix(1,0,0,1,49.129593798341574,61.74904333806313)"><svg viewBox="0 0 146.17217240331684 20.239732317639877" height="20.239732317639877" width="146.17217240331684"><g transform="matrix(1,0,0,1,20,3.2)"><svg width="106.17217240331684" viewBox="2.1499999999999995 -34 366.65000000000003 47.8" height="13.839732317639879" data-palette-color="#471aa0"><path d="M10.2 0.65L10.2 0.65Q8.35 0.65 6.8 0.3 5.25-0.05 4.25-1L4.25-1Q3.5-1.7 3.25-2.58 3-3.45 3-4.5L3-4.5Q3-6.2 3.3-7.9L3.3-7.9Q3.75-10.85 4.1-14.25 4.45-17.65 4.45-20.55L4.45-20.55Q4.45-21.45 4.38-22.6 4.3-23.75 4.15-24.75L4.15-24.75Q3.8-24.6 3.48-24.48 3.15-24.35 2.9-24.35L2.9-24.35Q2.45-24.35 2.3-24.8 2.15-25.25 2.15-25.8L2.15-25.8Q2.15-27.25 2.83-28.28 3.5-29.3 5.05-30.1L5.05-30.1Q6.7-31 9.38-31.68 12.05-32.35 14.8-32.35L14.8-32.35Q21.05-32.35 24.63-28.68 28.2-25 28.2-18.25L28.2-18.25Q28.2-14.4 27.03-10.98 25.85-7.55 23.55-4.93 21.25-2.3 17.9-0.83 14.55 0.65 10.2 0.65ZM11.8-4.95L11.8-4.95Q14.05-4.95 16.3-5.65 18.55-6.35 20.38-7.75 22.2-9.15 23.3-11.33 24.4-13.5 24.4-16.55L24.4-16.55Q24.4-20 23.05-22.25 21.7-24.5 19.45-25.6 17.2-26.7 14.45-26.7L14.45-26.7Q12.95-26.7 11.48-26.45 10-26.2 9.15-25.95L9.15-25.95Q9.1-23.65 8.88-21.48 8.65-19.3 8.35-17.25L8.35-17.25Q8.05-15.1 7.88-13.05 7.7-11 7.7-9L7.7-9Q7.7-6.5 8.72-5.73 9.75-4.95 11.8-4.95ZM39.15 0.65L39.15 0.65Q35.35 0.65 33.22-1.53 31.1-3.7 31.1-7.6L31.1-7.6Q31.1-11.15 32.65-14.05 34.2-16.95 36.82-18.68 39.45-20.4 42.6-20.4L42.6-20.4Q45.6-20.4 47.4-18.93 49.2-17.45 49.2-15L49.2-15Q49.2-13.05 48-11.4 46.8-9.75 44.8-8.78 42.8-7.8 40.35-7.8L40.35-7.8Q37.35-7.8 35.45-9.15L35.45-9.15Q35.5-6.85 37.02-5.45 38.55-4.05 40.95-4.05L40.95-4.05Q42.4-4.05 43.92-4.58 45.45-5.1 46.55-6L46.55-6Q47.25-6.6 47.85-6.6L47.85-6.6Q48.35-6.6 48.67-6.28 49-5.95 49-5.45L49-5.45Q49-4.35 47.1-2.55L47.1-2.55Q43.75 0.65 39.15 0.65ZM39.9-11.1L39.9-11.1Q41.7-11.1 42.9-11.85 44.1-12.6 44.1-13.75L44.1-13.75Q44.1-14.7 43.3-15.23 42.5-15.75 41.1-15.75L41.1-15.75Q39.25-15.75 37.87-14.78 36.5-13.8 35.9-12.05L35.9-12.05Q36.6-11.6 37.7-11.35 38.8-11.1 39.9-11.1ZM60.1 0.7L60.1 0.7Q58.75 0.7 57.77-0.13 56.8-0.95 56.6-3.2L56.6-3.2Q56.5-4.9 56.17-6.95 55.85-9 55.35-10.85 54.85-12.7 54.2-13.75L54.2-13.75Q53.85-14.3 53.42-14.58 53-14.85 52.15-14.95L52.15-14.95Q51.6-15 51.4-15.3 51.2-15.6 51.2-16.25L51.2-16.25Q51.2-18.3 52.32-19.28 53.45-20.25 54.9-20.25L54.9-20.25Q56.4-20.25 57.4-19.28 58.4-18.3 58.95-16.7 59.5-15.1 59.72-13.18 59.95-11.25 59.95-9.3L59.95-9.3Q59.95-8.5 59.92-7.63 59.9-6.75 59.9-6.15L59.9-6.15Q59.9-5.6 60.12-5.3 60.35-5 61-5L61-5Q61.8-5 62.85-5.48 63.9-5.95 64.92-6.85 65.95-7.75 66.62-8.97 67.3-10.2 67.3-11.7L67.3-11.7Q67.3-12.55 67.02-13.5 66.75-14.45 66.15-15.1L66.15-15.1Q65.55-15.75 65.27-16.13 65-16.5 65-17L65-17Q65-17.9 65.82-18.65 66.65-19.4 67.77-19.85 68.9-20.3 69.75-20.3L69.75-20.3Q71.2-20.3 71.59-19.1 72-17.9 72-16.45L72-16.45Q72-13.7 71-10.7 70-7.7 68.3-5.1 66.59-2.5 64.47-0.9 62.35 0.7 60.1 0.7ZM82.99 0.65L82.99 0.65Q79.19 0.65 77.07-1.53 74.94-3.7 74.94-7.6L74.94-7.6Q74.94-11.15 76.49-14.05 78.04-16.95 80.67-18.68 83.29-20.4 86.44-20.4L86.44-20.4Q89.44-20.4 91.24-18.93 93.04-17.45 93.04-15L93.04-15Q93.04-13.05 91.84-11.4 90.64-9.75 88.64-8.78 86.64-7.8 84.19-7.8L84.19-7.8Q81.19-7.8 79.29-9.15L79.29-9.15Q79.34-6.85 80.87-5.45 82.39-4.05 84.79-4.05L84.79-4.05Q86.24-4.05 87.77-4.58 89.29-5.1 90.39-6L90.39-6Q91.09-6.6 91.69-6.6L91.69-6.6Q92.19-6.6 92.52-6.28 92.84-5.95 92.84-5.45L92.84-5.45Q92.84-4.35 90.94-2.55L90.94-2.55Q87.59 0.65 82.99 0.65ZM83.74-11.1L83.74-11.1Q85.54-11.1 86.74-11.85 87.94-12.6 87.94-13.75L87.94-13.75Q87.94-14.7 87.14-15.23 86.34-15.75 84.94-15.75L84.94-15.75Q83.09-15.75 81.72-14.78 80.34-13.8 79.74-12.05L79.74-12.05Q80.44-11.6 81.54-11.35 82.64-11.1 83.74-11.1ZM100.19 0.5L100.19 0.5Q98.74 0.5 98.04-0.3 97.34-1.1 97.34-3.1L97.34-3.1Q97.34-4.05 97.49-5.55 97.64-7.05 97.84-8.8L97.84-8.8Q98.14-10.95 98.37-13.3 98.59-15.65 98.59-17.8L98.59-17.8Q98.59-20.85 98.31-24.13 98.04-27.4 96.79-29.85L96.79-29.85Q96.34-30.85 96.34-31.3L96.34-31.3Q96.34-31.95 96.92-32.55 97.49-33.15 98.34-33.58 99.19-34 99.99-34L99.99-34Q101.29-34 101.94-32.83 102.59-31.65 102.79-29.63 102.99-27.6 102.99-25L102.99-25Q102.99-21.05 102.67-18.15 102.34-15.25 102.04-13.05L102.04-13.05Q101.84-11.6 101.67-10.3 101.49-9 101.49-7.95L101.49-7.95Q101.49-6.2 102.06-5.43 102.64-4.65 103.94-3.9L103.94-3.9Q104.29-3.7 104.47-3.53 104.64-3.35 104.64-3L104.64-3Q104.64-2.6 104.24-1.75 103.84-0.9 102.87-0.2 101.89 0.5 100.19 0.5ZM115.79 0.65L115.79 0.65Q112.34 0.65 110.26-1.23 108.19-3.1 108.19-6.75L108.19-6.75Q108.19-8.45 108.66-10.05 109.14-11.65 109.94-13.05L109.94-13.05Q109.14-12.55 108.74-12.55L108.74-12.55Q108.14-12.55 107.91-13.23 107.69-13.9 107.69-14.55L107.69-14.55Q107.69-15.7 108.16-16.38 108.64-17.05 109.09-17.4L109.09-17.4Q110.14-18.3 112.39-19.38 114.64-20.45 117.79-20.45L117.79-20.45Q122.09-20.45 124.46-18.05 126.84-15.65 126.84-11.35L126.84-11.35Q126.84-8 125.44-5.28 124.04-2.55 121.56-0.95 119.09 0.65 115.79 0.65ZM117.34-4.45L117.34-4.45Q119.84-4.45 121.56-6.03 123.29-7.6 123.29-10.2L123.29-10.2Q123.29-12.9 121.54-14.05 119.79-15.2 117.49-15.2L117.49-15.2Q116.44-15.2 115.59-15 114.74-14.8 113.99-14.5L113.99-14.5Q113.29-13.5 112.74-12.25 112.19-11 112.19-9.5L112.19-9.5Q112.19-7 113.69-5.73 115.19-4.45 117.34-4.45ZM133.54 13.8L133.54 13.8Q132.04 13.8 131.19 12.98 130.34 12.15 130.34 10L130.34 10Q130.34 8.55 130.66 6.35 130.99 4.15 131.44 1.7L131.44 1.7Q131.79-0.25 132.11-2.4 132.44-4.55 132.66-6.63 132.89-8.7 132.89-10.35L132.89-10.35Q132.89-12.25 132.46-13.65 132.04-15.05 130.74-15.45L130.74-15.45Q130.24-15.65 129.84-15.9 129.44-16.15 129.44-16.7L129.44-16.7Q129.44-17.4 129.99-18.25 130.54-19.1 131.56-19.73 132.59-20.35 133.89-20.35L133.89-20.35Q135.59-20.35 136.24-19.18 136.89-18 136.89-16.1L136.89-16.1Q136.89-15.55 136.84-14.98 136.79-14.4 136.69-13.8L136.69-13.8Q138.14-16.6 140.51-18.53 142.89-20.45 145.89-20.45L145.89-20.45Q148.89-20.45 150.61-18.43 152.34-16.4 152.34-12.95L152.34-12.95Q152.34-10.4 151.54-7.98 150.74-5.55 149.29-3.6 147.84-1.65 145.81-0.5 143.79 0.65 141.29 0.65L141.29 0.65Q139.49 0.65 138.14 0.03 136.79-0.6 135.79-1.6L135.79-1.6Q135.59-0.3 135.41 1.55 135.24 3.4 135.24 5L135.24 5Q135.24 6.85 135.66 7.9 136.09 8.95 137.34 9.5L137.34 9.5Q137.89 9.75 137.89 10.3L137.89 10.3Q137.89 10.7 137.49 11.55 137.09 12.4 136.16 13.1 135.24 13.8 133.54 13.8ZM142.44-4.75L142.44-4.75Q145.29-4.75 146.84-6.55 148.39-8.35 148.39-10.7L148.39-10.7Q148.39-12.75 147.29-13.88 146.19-15 144.34-15L144.34-15Q142.44-15 140.99-13.88 139.54-12.75 138.51-10.95 137.49-9.15 136.84-7.1L136.84-7.1Q139.34-4.75 142.44-4.75ZM178.33 0.2L178.33 0.2Q176.78 0.2 175.98-0.48 175.18-1.15 175.18-2.85L175.18-2.85Q175.18-4.15 175.61-6.48 176.03-8.8 176.83-11.65L176.83-11.65Q176.43-13.65 175.86-15.83 175.28-18 174.53-19.95L174.53-19.95Q173.58-22.6 172.23-24.4 170.88-26.2 169.03-26.2L169.03-26.2Q168.68-26.2 168.36-26.15 168.03-26.1 167.78-26L167.78-26Q167.28-25.9 166.76-26.7 166.23-27.5 166.23-28.6L166.23-28.6Q166.23-30 167.21-31.08 168.18-32.15 169.88-32.15L169.88-32.15Q171.98-32.15 173.76-30.78 175.53-29.4 176.91-26.15 178.28-22.9 179.13-17.3L179.13-17.3Q180.03-19.6 181.31-22.18 182.58-24.75 184.18-27.03 185.78-29.3 187.63-30.73 189.48-32.15 191.53-32.15L191.53-32.15Q192.88-32.15 193.61-31.5 194.33-30.85 194.33-29.7L194.33-29.7Q194.33-28.9 194.01-28 193.68-27.1 193.13-26.45 192.58-25.8 191.98-25.8L191.98-25.8Q191.78-25.8 191.56-25.83 191.33-25.85 191.08-25.95L191.08-25.95Q190.58-26.2 189.93-26.2L189.93-26.2Q188.33-26.2 186.43-24 184.53-21.8 182.68-17.2L182.68-17.2Q180.78-12.35 180.78-7.8L180.78-7.8Q180.78-6.75 181.06-5.73 181.33-4.7 182.08-3.85L182.08-3.85Q182.58-3.1 182.58-2.45L182.58-2.45Q182.58-1.35 181.38-0.58 180.18 0.2 178.33 0.2ZM197.48 0.65L197.48 0.65Q194.03 0.65 191.95-1.23 189.88-3.1 189.88-6.75L189.88-6.75Q189.88-8.45 190.35-10.05 190.83-11.65 191.63-13.05L191.63-13.05Q190.83-12.55 190.43-12.55L190.43-12.55Q189.83-12.55 189.6-13.23 189.38-13.9 189.38-14.55L189.38-14.55Q189.38-15.7 189.85-16.38 190.33-17.05 190.78-17.4L190.78-17.4Q191.83-18.3 194.08-19.38 196.33-20.45 199.48-20.45L199.48-20.45Q203.78-20.45 206.15-18.05 208.53-15.65 208.53-11.35L208.53-11.35Q208.53-8 207.13-5.28 205.73-2.55 203.25-0.95 200.78 0.65 197.48 0.65ZM199.03-4.45L199.03-4.45Q201.53-4.45 203.25-6.03 204.98-7.6 204.98-10.2L204.98-10.2Q204.98-12.9 203.23-14.05 201.48-15.2 199.18-15.2L199.18-15.2Q198.13-15.2 197.28-15 196.43-14.8 195.68-14.5L195.68-14.5Q194.98-13.5 194.43-12.25 193.88-11 193.88-9.5L193.88-9.5Q193.88-7 195.38-5.73 196.88-4.45 199.03-4.45ZM218.63 0.65L218.63 0.65Q216.13 0.65 214.75-0.8 213.38-2.25 213.38-5L213.38-5Q213.38-6.95 213.93-9L213.93-9Q214.18-9.85 214.33-10.7 214.48-11.55 214.48-12.4L214.48-12.4Q214.48-14.6 213.13-15.25L213.13-15.25Q211.83-15.95 211.83-16.75L211.83-16.75Q211.83-17.55 212.5-18.35 213.18-19.15 214.18-19.68 215.18-20.2 216.18-20.2L216.18-20.2Q219.03-20.2 219.03-15.55L219.03-15.55Q219.03-14.05 218.8-12.78 218.58-11.5 218.28-10.35L218.28-10.35Q218.08-9.55 217.95-8.75 217.83-7.95 217.83-7.35L217.83-7.35Q217.83-4.85 220.28-4.85L220.28-4.85Q222.58-4.85 224.58-7.3 226.58-9.75 227.88-14.15L227.88-14.15 227.83-15.1Q227.73-17.6 228.7-18.9 229.68-20.2 231.58-20.2L231.58-20.2Q233.23-20.2 233.23-19.15L233.23-19.15Q233.23-18.8 233.1-18.25 232.98-17.7 232.73-16.95L232.73-16.95Q232.23-15.1 231.88-13.03 231.53-10.95 231.53-9.2L231.53-9.2Q231.53-7.25 232.13-5.98 232.73-4.7 234.38-4.25L234.38-4.25Q234.83-4.2 235.1-3.98 235.38-3.75 235.38-3.05L235.38-3.05Q235.38-1.85 234.38-0.7 233.38 0.45 231.48 0.45L231.48 0.45Q227.83 0.45 227.83-4.7L227.83-4.7Q227.83-5.6 227.98-7.4L227.98-7.4 227.88-7.45Q224.73 0.65 218.63 0.65ZM241.22 0.55L241.22 0.55Q240.42 0.55 239.95 0.28 239.47 0 239.62-0.65L239.62-0.65Q240.17-2.8 240.55-5.03 240.92-7.25 240.92-9.3L240.92-9.3Q240.92-11.95 240.6-13.18 240.27-14.4 239.72-14.88 239.17-15.35 238.37-15.6L238.37-15.6Q238.02-15.75 237.75-16 237.47-16.25 237.47-16.7L237.47-16.7Q237.47-17.4 238.02-18.25 238.57-19.1 239.57-19.73 240.57-20.35 241.87-20.35L241.87-20.35Q243.57-20.35 244.25-19.18 244.92-18 244.92-16.1L244.92-16.1Q245.82-18.1 247.15-19.28 248.47-20.45 250.47-20.45L250.47-20.45Q251.82-20.45 252.72-19.85 253.62-19.25 253.62-17.9L253.62-17.9Q253.62-16.55 252.75-15.38 251.87-14.2 250.97-14.2L250.97-14.2Q250.82-14.2 250.62-14.25 250.42-14.3 250.27-14.5L250.27-14.5Q249.62-15.3 248.67-15.3L248.67-15.3Q247.22-15.3 246.12-13.4 245.02-11.5 244.92-8.15L244.92-8.15Q244.97-6.9 245-5.6 245.02-4.3 245.02-3.7L245.02-3.7Q245.02-1.85 244-0.65 242.97 0.55 241.22 0.55ZM276.12 0.65L276.12 0.65Q273.67 0.65 271.59-0.08 269.52-0.8 268.27-2.1 267.02-3.4 267.02-5.15L267.02-5.15Q267.02-6.3 267.57-7.18 268.12-8.05 269.07-8.05L269.07-8.05Q269.67-8.05 270.32-7.6L270.32-7.6Q271.57-6.5 273.54-5.68 275.52-4.85 277.77-4.85L277.77-4.85Q280.72-4.85 282.59-6.03 284.47-7.2 284.47-9.2L284.47-9.2Q284.47-11.1 282.72-11.95 280.97-12.8 277.87-13.55L277.87-13.55Q275.57-14.1 273.44-14.95 271.32-15.8 269.94-17.32 268.57-18.85 268.57-21.4L268.57-21.4Q268.57-23.35 269.42-25.28 270.27-27.2 271.92-28.8 273.57-30.4 275.92-31.38 278.27-32.35 281.22-32.35L281.22-32.35Q283.42-32.35 285.24-31.85 287.07-31.35 288.14-30.45 289.22-29.55 289.22-28.25L289.22-28.25Q289.22-27.25 288.67-26.5 288.12-25.75 287.37-25.33 286.62-24.9 286.07-24.9L286.07-24.9Q285.57-24.9 284.72-25.35L284.72-25.35Q283.32-26.1 281.59-26.53 279.87-26.95 278.57-26.95L278.57-26.95Q276.12-26.95 274.59-25.88 273.07-24.8 273.07-23.35L273.07-23.35Q273.07-21.75 274.99-20.68 276.92-19.6 281.92-18.4L281.92-18.4Q285.32-17.5 287.22-15.93 289.12-14.35 289.12-10.95L289.12-10.95Q289.12-7.9 287.49-5.25 285.87-2.6 282.94-0.98 280.02 0.65 276.12 0.65ZM294.47 0.55L294.47 0.55Q293.92 0.55 293.42 0.23 292.92-0.1 293.02-0.65L293.02-0.65Q293.77-4.65 294.29-8.78 294.81-12.9 294.81-17.1L294.81-17.1Q294.81-20.8 294.56-23.8 294.31-26.8 292.97-29.55L292.97-29.55Q292.72-30.1 292.56-30.5 292.42-30.9 292.42-31.25L292.42-31.25Q292.42-32.2 293.52-33.1 294.62-34 295.87-34L295.87-34Q297.67-34 298.31-31.8 298.97-29.6 298.97-25.3L298.97-25.3Q298.97-20.15 298.37-16.32 297.77-12.5 297.31-10.5L297.31-10.5 297.52-10.4Q298.52-12.85 300.06-15.13 301.62-17.4 303.64-18.9 305.67-20.4 308.06-20.4L308.06-20.4Q310.42-20.4 311.69-19 312.97-17.6 312.97-15.65L312.97-15.65Q312.97-13.35 311.31-11.55 309.67-9.75 307.02-8.55L307.02-8.55Q307.67-6.85 308.87-5.88 310.06-4.9 311.92-4.9L311.92-4.9Q312.52-4.9 312.92-5L312.92-5Q313.56-5.15 313.56-3.75L313.56-3.75Q313.56-2.95 313.27-1.95 312.97-0.95 312.09-0.23 311.22 0.5 309.47 0.5L309.47 0.5Q307.12 0.5 305.64-0.88 304.17-2.25 303.34-4.28 302.52-6.3 302.06-8.3L302.06-8.3Q301.67-10.15 303.31-10.25L303.31-10.25Q305.06-10.45 306.27-11.3 307.47-12.15 307.47-13.55L307.47-13.55Q307.47-15.15 305.92-15.15L305.92-15.15Q304.92-15.15 303.89-14.43 302.87-13.7 301.99-12.7 301.12-11.7 300.56-10.75L300.56-10.75Q299.81-9.45 299.27-8.2 298.72-6.95 298.37-5.7L298.37-5.7 298.37-3.7Q298.37-1.85 297.29-0.65 296.22 0.55 294.47 0.55ZM321.76-24.85L321.76-24.85Q320.36-24.9 319.51-25.7 318.66-26.5 318.66-27.95L318.66-27.95Q318.71-29.5 319.71-30.48 320.71-31.45 322.26-31.4L322.26-31.4Q323.71-31.35 324.54-30.55 325.36-29.75 325.31-28.3L325.31-28.3Q325.26-26.8 324.31-25.83 323.36-24.85 321.76-24.85ZM321.81 0.5L321.81 0.5Q320.31 0.5 319.46-0.33 318.61-1.15 318.61-3.15L318.61-3.15Q318.61-4.3 318.84-5.4 319.06-6.5 319.36-7.55L319.36-7.55Q319.71-8.65 319.94-9.8 320.16-10.95 320.16-12.25L320.16-12.25Q320.16-13.15 319.91-13.98 319.66-14.8 318.81-15.2L318.81-15.2Q318.16-15.55 317.69-15.93 317.21-16.3 317.21-16.9L317.21-16.9Q317.21-17.6 317.86-18.4 318.51-19.2 319.59-19.78 320.66-20.35 321.81-20.35L321.81-20.35Q323.06-20.35 323.64-19.7 324.21-19.05 324.41-18.05 324.61-17.05 324.61-16L324.61-16Q324.61-14.4 324.36-12.88 324.11-11.35 323.86-10.05L323.86-10.05Q323.66-9.1 323.56-8.3 323.46-7.5 323.46-6.8L323.46-6.8Q323.46-5.55 324.06-4.93 324.66-4.3 325.76-3.75L325.76-3.75Q326.21-3.5 326.21-3L326.21-3Q326.21-2.6 325.81-1.75 325.41-0.9 324.44-0.2 323.46 0.5 321.81 0.5ZM333.66 0.5L333.66 0.5Q332.21 0.5 331.51-0.3 330.81-1.1 330.81-3.1L330.81-3.1Q330.81-4.05 330.96-5.55 331.11-7.05 331.31-8.8L331.31-8.8Q331.61-10.95 331.83-13.3 332.06-15.65 332.06-17.8L332.06-17.8Q332.06-20.85 331.79-24.13 331.51-27.4 330.26-29.85L330.26-29.85Q329.81-30.85 329.81-31.3L329.81-31.3Q329.81-31.95 330.38-32.55 330.96-33.15 331.81-33.58 332.66-34 333.46-34L333.46-34Q334.76-34 335.41-32.83 336.06-31.65 336.26-29.63 336.46-27.6 336.46-25L336.46-25Q336.46-21.05 336.13-18.15 335.81-15.25 335.51-13.05L335.51-13.05Q335.31-11.6 335.13-10.3 334.96-9 334.96-7.95L334.96-7.95Q334.96-6.2 335.54-5.43 336.11-4.65 337.41-3.9L337.41-3.9Q337.76-3.7 337.94-3.53 338.11-3.35 338.11-3L338.11-3Q338.11-2.6 337.71-1.75 337.31-0.9 336.33-0.2 335.36 0.5 333.66 0.5ZM345.06 0.5L345.06 0.5Q343.61 0.5 342.91-0.3 342.21-1.1 342.21-3.1L342.21-3.1Q342.21-4.05 342.36-5.55 342.51-7.05 342.71-8.8L342.71-8.8Q343.01-10.95 343.23-13.3 343.46-15.65 343.46-17.8L343.46-17.8Q343.46-20.85 343.18-24.13 342.91-27.4 341.66-29.85L341.66-29.85Q341.21-30.85 341.21-31.3L341.21-31.3Q341.21-31.95 341.78-32.55 342.36-33.15 343.21-33.58 344.06-34 344.86-34L344.86-34Q346.16-34 346.81-32.83 347.46-31.65 347.66-29.63 347.86-27.6 347.86-25L347.86-25Q347.86-21.05 347.53-18.15 347.21-15.25 346.91-13.05L346.91-13.05Q346.71-11.6 346.53-10.3 346.36-9 346.36-7.95L346.36-7.95Q346.36-6.2 346.93-5.43 347.51-4.65 348.81-3.9L348.81-3.9Q349.16-3.7 349.33-3.53 349.51-3.35 349.51-3L349.51-3Q349.51-2.6 349.11-1.75 348.71-0.9 347.73-0.2 346.76 0.5 345.06 0.5ZM359.35 0.65L359.35 0.65Q357.5 0.65 355.9 0.1 354.3-0.45 353.3-1.45 352.3-2.45 352.3-3.85L352.3-3.85Q352.3-4.6 352.68-5.28 353.05-5.95 353.9-5.95L353.9-5.95Q354.35-5.95 354.85-5.7L354.85-5.7Q355.75-5.2 357.15-4.78 358.55-4.35 360.1-4.35L360.1-4.35Q361.85-4.35 363.2-4.85 364.55-5.35 364.55-6.25L364.55-6.25Q364.55-6.95 363.53-7.25 362.5-7.55 360.1-7.9L360.1-7.9Q358.45-8.2 356.9-8.6 355.35-9 354.35-9.98 353.35-10.95 353.35-12.85L353.35-12.85Q353.35-14.7 354.38-16.43 355.4-18.15 357.45-19.3 359.5-20.45 362.45-20.45L362.45-20.45Q364-20.45 365.45-20.1 366.9-19.75 367.85-19.05 368.8-18.35 368.8-17.3L368.8-17.3Q368.8-16.4 368.18-15.65 367.55-14.9 366.73-14.43 365.9-13.95 365.35-13.95L365.35-13.95Q364.95-13.95 364.4-14.5L364.4-14.5Q363.55-15.2 362.53-15.48 361.5-15.75 360.5-15.75L360.5-15.75Q359-15.75 358.08-15.3 357.15-14.85 357.15-14.15L357.15-14.15Q357.15-13.5 357.93-13.1 358.7-12.7 359.85-12.53 361-12.35 362.05-12.2L362.05-12.2Q364.95-11.8 366.65-10.83 368.35-9.85 368.35-7.4L368.35-7.4Q368.35-5.5 367.28-3.63 366.2-1.75 364.18-0.55 362.15 0.65 359.35 0.65Z" opacity="1" transform="matrix(1,0,0,1,0,0)" fill="#471aa0" class="slogan-text-1" data-fill-palette-color="quaternary" id="text-1"></path></svg></g></svg></g></svg></g></svg></g></svg></g></svg></g><g><path d="M245.816 0c68.262 0 123.6 55.338 123.6 123.6 0 68.262-55.338 123.6-123.6 123.6-52.53 0-97.406-32.769-115.301-78.981h1.486c17.824 45.43 62.063 77.596 113.815 77.596 67.498 0 122.215-54.718 122.215-122.215 0-67.498-54.718-122.215-122.215-122.215-51.752 0-95.99 32.166-113.815 77.596h-1.486c17.895-46.211 62.771-78.981 115.301-78.981z" fill="#ffffff" stroke="transparent" data-fill-palette-color="tertiary"></path></g></svg></g><defs></defs></svg><rect width="395.52" height="247.2" fill="none" stroke="none" visibility="hidden"></rect></g></svg></g></svg>